<svg width="18" height="18" viewBox="0 0 18 18" fill="none" xmlns="http://www.w3.org/2000/svg">
<path fill-rule="evenodd" clip-rule="evenodd" d="M1.14356 1.40194C0.753379 1.79281 0.75393 2.42597 1.14479 2.81615L7.6782 9.33818L1.14421 15.8836C0.754022 16.2744 0.754575 16.9076 1.14544 17.2978L1.33901 17.491C1.72988 17.8812 2.36304 17.8807 2.75322 17.4898L9.28722 10.9444L15.8195 17.4653C16.2104 17.8555 16.8436 17.855 17.2337 17.4641L17.427 17.2705C17.8172 16.8797 17.8166 16.2465 17.4257 15.8563L10.8934 9.33538L17.4024 2.81505C17.7926 2.42418 17.792 1.79102 17.4012 1.40083L17.2076 1.2076C16.8167 0.817415 16.1836 0.817967 15.7934 1.20883L9.28441 7.72916L2.75101 1.20714C2.36015 0.816952 1.72698 0.817505 1.3368 1.20837L1.14356 1.40194Z" fill="#010101"/>
</svg>
